<?xml version="1.0" encoding="UTF-8" standalone="no"?>
<!-- Created with Inkscape (http://www.inkscape.org/) -->

<svg
   width="200"
   height="177.291"
   viewBox="0 0 52.916665 46.908244"
   version="1.1"
   id="svg5"
   xml:space="preserve"
   inkscape:version="1.2.2 (732a01da63, 2022-12-09)"
   sodipodi:docname="reciever.svg"
   xmlns:inkscape="http://www.inkscape.org/namespaces/inkscape"
   xmlns:sodipodi="http://sodipodi.sourceforge.net/DTD/sodipodi-0.dtd"
   xmlns="http://www.w3.org/2000/svg"
   xmlns:svg="http://www.w3.org/2000/svg"><sodipodi:namedview
     id="namedview7"
     pagecolor="#ffffff"
     bordercolor="#999999"
     borderopacity="1"
     inkscape:showpageshadow="0"
     inkscape:pageopacity="0"
     inkscape:pagecheckerboard="0"
     inkscape:deskcolor="#d1d1d1"
     inkscape:document-units="mm"
     showgrid="false"
     inkscape:zoom="2.0133277"
     inkscape:cx="107.03672"
     inkscape:cy="111.75528"
     inkscape:window-width="1304"
     inkscape:window-height="745"
     inkscape:window-x="54"
     inkscape:window-y="-8"
     inkscape:window-maximized="1"
     inkscape:current-layer="layer1" /><defs
     id="defs2" /><g
     inkscape:label="Слой 1"
     inkscape:groupmode="layer"
     id="layer1"><g
       id="g1731"
       transform="matrix(0.37835527,0,0,0.37835527,-8.2301217,-21.956069)"><path
         id="path1535"
         style="opacity:1;fill:#ffffff;fill-opacity:1;stroke:none;stroke-width:0.0799999;stroke-linejoin:round"
         d="m 143.63774,109.73232 -18.13532,0.52555 -25.889379,1.70842 -13.141317,-1.97094 -10.458793,0.30696 -9.571508,0.55707 -17.841805,1.39423 -12.079883,0.92915 -6.133476,0.37155 -3.06648,1.20819 -2.229838,4.55321 -1.208195,5.1108 0.464572,9.29246 v 10.22211 l -1.579749,11.15075 1.208195,11.52281 c 0,0 2.230132,5.5755 7.712708,9.85004 l 3.663342,0.42116 19.712492,-0.78858 12.353251,-0.78858 19.711975,1.57716 14.718998,0.3943 14.981,3.15381 18.79265,-0.78858 12.48451,-2.23398 5.12527,-5.51956 5.3883,-15.63832 1.70842,-15.50706 -0.52606,-13.66739 -0.52555,-9.06766 -4.73098,-5.51956 z m -93.765332,13.27309 32.393888,1.0511 22.340754,0.13178 7.4905,-1.11725 3.41685,1.0511 2.89129,3.15433 1.24851,3.5481 -1.0511,4.73098 -2.36575,3.48247 -4.46794,2.36575 -5.71697,-0.46044 -13.010057,-0.32814 -11.695927,0.65681 -18.792651,1.70842 -13.40435,0.65732 -8.213452,0.52555 c -4.008179,-1.70839 -5.97948,-6.17636 -5.97948,-6.17636 l 0.788582,-12.48451 3.153813,-1.44591 z" /><path
         d="m 126.22172,181.94505 c -0.0671,-0.0671 -1.34767,-0.11267 -2.84574,-0.10128 -3.76101,0.0286 -13.614,-1.09245 -16.06279,-1.82756 -0.52166,-0.1566 -1.48425,-0.33493 -2.1391,-0.39628 -0.65484,-0.0614 -2.02406,-0.238 -3.0427,-0.39255 -2.11897,-0.32148 -8.595432,-0.92618 -14.022923,-1.3093 -5.076155,-0.35832 -6.636482,-0.50906 -8.34822,-0.80651 -1.830327,-0.31805 -18.540967,-0.39582 -20.755945,-0.0966 -1.982337,0.26779 -4.228369,0.40189 -8.731249,0.52128 -4.615956,0.12239 -5.299938,0.20578 -5.04683,0.61532 0.188209,0.30453 -0.781658,0.56256 -1.964629,0.52268 -0.926041,-0.0312 -0.926041,-0.0312 0,-0.22614 0.926042,-0.19493 0.926042,-0.19493 0.08176,-0.22976 -0.464354,-0.0192 -0.925722,0.0969 -1.025261,0.258 -0.128047,0.20719 -0.241546,0.19484 -0.388053,-0.0422 -0.166341,-0.26914 -0.364181,-0.26997 -1.005756,-0.004 -0.439274,0.18195 -1.048953,0.25139 -1.354841,0.15431 -0.305887,-0.0971 -1.654117,-0.22109 -2.996067,-0.27556 -4.215683,-0.17112 -8.657617,-1.41012 -8.657617,-2.41488 0,-0.18914 -0.297656,-0.53891 -0.661458,-0.77729 -0.363802,-0.23837 -0.661458,-0.58966 -0.661458,-0.78064 0,-0.19099 -0.297657,-0.58138 -0.661459,-0.86755 -0.363802,-0.28616 -0.661458,-0.65199 -0.661458,-0.81295 0,-0.16096 -0.120989,-0.29265 -0.268864,-0.29265 -0.147876,0 -0.470591,-0.44648 -0.717148,-0.99219 -0.246557,-0.5457 -0.604147,-1.18273 -0.794642,-1.41561 -0.459711,-0.562 -1.227791,-4.42178 -1.600573,-8.04324 -0.273563,-2.6576 -0.102349,-14.02534 0.221168,-14.68439 0.07931,-0.16156 0.182756,-1.13926 0.377923,-3.57187 0.08172,-1.01865 0.25301,-2.23078 0.380632,-2.69362 0.236964,-0.85938 0.187815,-4.42209 -0.119795,-8.68347 -0.401148,-5.5572 -0.17698,-9.56225 0.670105,-11.97236 0.290552,-0.82668 0.52901,-1.68577 0.529907,-1.90909 7.94e-4,-0.22332 0.179491,-0.74708 0.396875,-1.16389 0.217384,-0.41682 0.395245,-0.92284 0.395245,-1.12448 0,-0.20165 0.119063,-0.36663 0.264584,-0.36663 0.145521,0 0.234817,-0.092 0.198437,-0.2045 -0.09158,-0.28313 2.468457,-2.70592 2.859209,-2.70592 0.17443,0 0.455025,-0.16614 0.623549,-0.3692 0.267986,-0.3229 1.428065,-0.68639 2.668805,-0.83622 0.218281,-0.0263 1.0116,-0.23268 1.762931,-0.45849 0.751332,-0.22582 1.424758,-0.35187 1.496502,-0.28013 0.245536,0.24554 14.999742,0.11469 16.520856,-0.14652 1.424358,-0.24458 5.586542,-0.55556 9.191585,-0.68673 0.873125,-0.0318 1.935452,-0.19865 2.36073,-0.37083 0.425279,-0.17218 0.901528,-0.26422 1.058334,-0.20452 0.156805,0.0597 0.940004,0.0193 1.740437,-0.0897 0.800433,-0.10904 2.493634,-0.27941 3.762666,-0.3786 1.269031,-0.0992 2.678919,-0.28692 3.133079,-0.41718 0.454163,-0.13025 1.142212,-0.18258 1.529001,-0.1163 1.538285,0.26361 2.985151,0.29242 4.454056,0.0887 0.900192,-0.12486 3.025998,-0.0894 5.112737,0.0851 1.964531,0.16438 4.107656,0.32253 4.7625,0.35145 0.654844,0.0289 1.369219,0.11542 1.5875,0.19223 1.344414,0.47307 8.813613,1.35319 11.112503,1.30942 13.46186,-0.25632 18.47019,-0.56141 19.91524,-1.21317 0.47,-0.21199 1.68799,-0.45957 2.70664,-0.55018 3.35337,-0.2983 3.24895,-0.23952 3.45641,-1.94574 0.19863,-1.63368 0.56028,-2.50494 1.41592,-3.4112 0.30339,-0.32134 0.55162,-0.7076 0.55162,-0.85836 0,-0.58682 3.50999,-3.679117 4.63021,-4.079217 0.67407,-0.24074 2.83965,-0.69588 3.31109,-0.69588 0.28895,0 0.52537,-0.11906 0.52537,-0.26458 0,-0.14552 -0.16719,-0.26459 -0.37153,-0.26459 -0.20434,0 -1.24614,-0.30418 -2.3151,-0.67595 -1.06897,-0.37178 -2.47936,-0.83823 -3.1342,-1.03657 -1.87435,-0.5677 -4.28472,-1.43429 -5.24294,-1.88496 -0.48253,-0.22695 -1.13737,-0.46339 -1.45521,-0.52544 -1.72192,-0.33614 -7.11201,-2.14045 -9.10078,-3.04644 -0.63315,-0.28843 -1.25297,-0.4615 -1.37739,-0.38461 -0.12443,0.0769 -0.37336,-0.0375 -0.55318,-0.25415 -0.17983,-0.21668 -0.54779,-0.39396 -0.81769,-0.39396 -0.57182,0 -3.23442,-0.97545 -5.28899,-1.93764 -0.78734,-0.36872 -2.20544,-0.9281 -3.15132,-1.24306 -0.94589,-0.31496 -2.6881,-1.03456 -3.87158,-1.59911 -1.18349,-0.564551 -2.7313,-1.162861 -3.43958,-1.329578 -0.70829,-0.166714 -1.494547,-0.408117 -1.747235,-0.536448 -0.252688,-0.128331 -0.744125,-0.233328 -1.092084,-0.233328 -0.347956,0 -0.7831,-0.181282 -0.966986,-0.402849 -0.188208,-0.22678 -0.543507,-0.33646 -0.812921,-0.25095 -0.263226,0.08354 -0.871493,-0.05596 -1.351709,-0.309999 -1.983491,-1.049308 -11.472807,-4.087712 -12.767175,-4.08795 -0.284337,-5.3e-5 -0.674166,-0.130553 -0.866291,-0.290002 -0.192124,-0.159448 -0.426074,-0.213148 -0.519887,-0.119335 -0.09382,0.09382 -0.358831,0.0109 -0.58892,-0.184232 -0.23009,-0.19514 -1.132721,-0.556471 -2.005846,-0.802957 -0.873125,-0.246486 -1.9591,-0.565489 -2.413278,-0.708896 -0.454179,-0.143406 -0.996675,-0.195162 -1.205548,-0.115009 -0.208875,0.08015 -0.730244,-0.155673 -1.158599,-0.524055 -0.428353,-0.368382 -0.980157,-0.669933 -1.22623,-0.67011 -0.246073,-1.77e-4 -0.506611,-0.09612 -0.578972,-0.213198 -0.07236,-0.117081 -1.061651,-0.487501 -2.198426,-0.823155 -1.136777,-0.33565 -2.662176,-0.786246 -3.38978,-1.001323 -0.727604,-0.215077 -2.093007,-0.745794 -3.034233,-1.179372 -0.941224,-0.433578 -2.072317,-0.856975 -2.513542,-0.940885 -0.441221,-0.08391 -1.457068,-0.488829 -2.257433,-0.899824 -0.800364,-0.410996 -1.693333,-0.786162 -1.984375,-0.833705 -0.57903,-0.09459 -2.839267,-0.886288 -3.745084,-1.311804 -0.313544,-0.147294 -0.71315,-0.179385 -0.88801,-0.07132 -0.538803,0.332999 -2.516302,0.175405 -4.738243,-0.377605 -2.325534,-0.578792 -3.528444,-1.107668 -4.481214,-1.970231 -1.139925,-1.031999 -1.186656,-1.700921 -0.27972,-4.003947 0.114615,-0.291042 0.274045,-0.767498 0.35429,-1.058794 0.223155,-0.810054 1.84503,-1.229596 2.957113,-0.764937 0.485098,0.202687 1.113256,0.368522 1.395905,0.368522 1.040442,0 4.817261,2.066608 6.489554,3.550968 0.422818,0.375301 0.910379,0.682366 1.083472,0.682366 0.173093,0 0.530214,0.238125 0.793604,0.529166 0.26339,0.291042 0.59127,0.529167 0.728626,0.529167 0.137353,0 0.684448,0.191471 1.215763,0.425492 4.792125,2.110719 6.524572,2.805076 7.217637,2.892788 0.385524,0.04879 1.158519,0.333952 1.717767,0.633687 0.559244,0.299739 1.395632,0.616048 1.858634,0.702908 0.463005,0.08686 1.091795,0.390809 1.397312,0.675439 0.305517,0.284634 0.669232,0.447215 0.808257,0.361294 0.139026,-0.08592 0.785797,0.0866 1.437267,0.383376 0.651473,0.296781 1.371238,0.539599 1.599475,0.539599 0.22824,0 0.621726,0.111993 0.874414,0.248873 0.252687,0.136882 1.41193,0.547097 2.576097,0.911592 3.473018,1.087391 4.740071,1.512997 5.168058,1.735964 0.22306,0.116208 0.818372,0.293003 1.322917,0.392875 1.105768,0.218887 3.862694,1.074457 5.684972,1.764247 0.730417,0.276484 1.577562,0.5027 1.882548,0.5027 0.304985,0 0.857244,0.238125 1.227243,0.529167 0.369999,0.291042 0.856578,0.529167 1.081283,0.529167 0.224708,0 1.456084,0.367927 2.736392,0.817615 1.280311,0.449686 2.804086,0.965322 3.38617,1.145858 0.582083,0.180533 1.236931,0.399769 1.455211,0.487187 0.21828,0.08742 1.08149,0.349015 1.91823,0.581324 0.83674,0.23231 1.52135,0.521933 1.52135,0.64361 0,0.121677 0.52189,0.292761 1.15975,0.38019 0.63787,0.08743 1.5606,0.395431 2.05053,0.684451 0.48992,0.289018 1.7242,0.839139 2.74285,1.222491 1.01864,0.383353 1.97114,0.789491 2.11667,0.902531 0.14552,0.113041 0.592,0.283744 0.99218,0.379344 0.40019,0.0956 0.72761,0.29061 0.72761,0.43336 0,0.14274 0.24952,0.25954 0.55449,0.25954 0.30497,0 0.87051,0.18241 1.25677,0.40537 0.38625,0.22294 1.8929,0.80832 3.34811,1.30082 4.14355,1.40235 8.68631,3.04792 9.19068,3.32923 0.25269,0.14094 0.64734,0.25625 0.877,0.25625 0.22965,0 0.97541,0.22597 1.65723,0.50217 0.68182,0.2762 1.95405,0.76406 2.82718,1.08413 0.87312,0.32007 1.82562,0.6763 2.11666,0.79161 0.29104,0.11531 1.06495,0.34948 1.71979,0.52037 0.65485,0.1709 1.69535,0.5412 2.31222,0.82289 0.61688,0.28169 1.27727,0.51216 1.46753,0.51216 0.19027,0 1.35242,0.41454 2.58257,0.9212 1.23015,0.50666 2.42119,0.92338 2.64675,0.92604 0.22555,0.003 0.52321,0.1062 0.66145,0.23009 0.34395,0.30821 3.30827,1.09767 4.12162,1.09767 0.84282,0 2.60241,0.84597 3.25156,1.56327 0.27545,0.30437 0.58646,0.5534 0.69114,0.5534 0.29128,0 2.2412,1.845607 2.2412,2.121307 0,0.13353 0.20836,0.48613 0.46303,0.78355 0.25466,0.29742 0.46302,0.69151 0.46302,0.87575 0,0.18424 0.1571,0.56983 0.34911,0.85687 0.19201,0.28704 0.68672,1.59345 1.09936,2.90314 0.73874,2.34469 0.97819,3.83652 0.61581,3.83648 -0.35363,-4e-5 0.37593,1.60042 0.84364,1.85073 0.52245,0.27961 2.26914,2.79555 2.93991,4.23467 1.13403,2.433 1.34123,4.11086 0.89309,7.2319 -0.23944,1.66762 -0.30916,5.38911 -0.12226,6.52643 0.0813,0.49464 -0.0412,16.13368 -0.1388,17.72708 -0.37869,6.18031 -1.6171,12.55075 -2.67854,13.77852 -0.1983,0.22938 -0.46031,0.95106 -0.58225,1.60375 -0.12193,0.65269 -0.4699,1.71517 -0.77325,2.36108 -1.46533,3.11998 -1.69924,3.74357 -1.57804,4.20701 0.0968,0.37014 0.0237,0.45858 -0.28221,0.34121 -0.30791,-0.11815 -0.36826,-0.0422 -0.23739,0.29883 0.16357,0.42626 -0.31585,1.30362 -1.40652,2.574 -0.21828,0.25425 -0.57547,0.67595 -0.79375,0.93712 -0.21828,0.26117 -0.68431,0.81614 -1.03563,1.23327 -0.52541,0.62384 -0.57236,0.80044 -0.26458,0.99527 0.27284,0.17271 0.17553,0.23795 -0.35934,0.2409 -0.48179,0.003 -1.11943,0.35977 -1.85802,1.04058 -0.94062,0.86703 -1.51293,1.13066 -3.49982,1.61216 -1.36739,0.33137 -3.94712,0.67046 -6.07948,0.79911 -2.03729,0.12291 -3.95306,0.27992 -4.25727,0.3489 -0.30421,0.069 -1.67343,0.2057 -3.04271,0.30383 -1.36928,0.0981 -2.90632,0.22765 -3.41565,0.28781 -2.1255,0.25108 -2.64911,0.28269 -2.76487,0.16693 z m 5.93987,-3.61859 c 3.15665,-0.22002 6.90942,-0.65956 7.2083,-0.84427 0.1625,-0.10044 1.18142,-0.15974 2.26426,-0.13179 1.08284,0.028 2.10317,-0.0553 2.26739,-0.18498 0.16423,-0.12969 0.71658,-0.31091 1.22746,-0.4027 0.51087,-0.0918 1.24982,-0.46451 1.6421,-0.82825 0.39228,-0.36375 0.82935,-0.66135 0.97127,-0.66135 0.4036,0 4.21288,-3.92326 4.40887,-4.5408 0.10866,-0.34234 0.0388,-0.63885 -0.18373,-0.77985 -0.29289,-0.18558 -0.28592,-0.22885 0.0378,-0.23483 0.33784,-0.006 1.5875,-1.56827 1.5875,-1.98432 0,-0.0764 0.22794,-0.6436 0.50652,-1.26048 1.36859,-3.03047 3.97034,-12.32279 3.94399,-14.08619 -0.004,-0.29104 0.0642,-0.82682 0.15227,-1.19063 0.0881,-0.3638 0.22284,-3.34036 0.29941,-6.61458 0.0766,-3.27422 0.1501,-6.07219 0.16339,-6.21771 0.0133,-0.14552 0.0172,-0.33243 0.009,-0.41536 -0.008,-0.0829 -0.0858,-1.15449 -0.17191,-2.38125 -0.0861,-1.22676 -0.22664,-3.12344 -0.31242,-4.21485 -0.20464,-2.60384 -0.21035,-2.41168 0.15508,-5.21103 0.33881,-2.59547 0.22896,-5.83988 -0.23945,-7.0719 -0.66812,-1.75728 -2.23055,-3.09189 -6.24991,-5.33856 -2.48206,-1.38739 -5.95286,-2.23499 -10.48645,-2.56089 -0.6878,-0.0494 -1.32854,-0.16789 -1.42385,-0.2632 -0.0953,-0.0953 -0.366,-0.0761 -0.60153,0.0428 -0.55656,0.28085 -4.03812,0.0408 -3.8489,-0.26532 0.0795,-0.12868 0.0185,-0.23397 -0.13559,-0.23397 -0.15411,0 -0.2802,0.12258 -0.2802,0.27239 0,0.16372 -0.65972,0.25003 -1.65365,0.21635 -1.3744,-0.0466 -4.77493,0.2247 -8.79739,0.70182 -1.54474,0.18322 -2.91862,0.44383 -3.57188,0.67754 -0.3638,0.13015 -1.43536,0.29885 -2.38125,0.37488 -0.94588,0.076 -2.3151,0.20104 -3.04271,0.27781 -0.7276,0.0768 -5.4901,0.16607 -10.58333,0.19845 -7.67753,0.0488 -9.816638,-0.021 -12.514489,-0.40857 -1.789739,-0.2571 -3.873333,-0.52847 -4.630208,-0.60304 -0.756875,-0.0746 -2.152586,-0.24803 -3.101581,-0.38546 -1.820566,-0.26364 -13.595503,-0.16977 -14.293302,0.11395 -0.474093,0.19276 -3.848618,0.57748 -8.190629,0.93379 -1.673489,0.13733 -3.589678,0.35581 -4.258201,0.48552 -0.66852,0.1297 -2.156801,0.26261 -3.307291,0.29534 -1.150488,0.0327 -3.341955,0.20482 -4.869924,0.38243 -2.626651,0.30531 -3.734315,0.32407 -11.112499,0.18818 -3.424254,-0.0631 -6.359123,0.15683 -7.540625,0.56498 -2.061999,0.71231 -2.980613,1.28312 -3.604945,2.24006 -1.044501,1.60093 -2.289932,5.54978 -2.322605,7.3642 -0.04515,2.50711 -0.0016,4.43387 0.15884,7.02268 0.103311,1.66732 0.189097,3.6268 0.190637,4.35441 0.0043,2.01791 -0.379902,9.42151 -0.535437,10.31875 -0.07568,0.43656 -0.193609,1.50812 -0.262073,2.38125 -0.06846,0.87312 -0.184856,2.12328 -0.258648,2.77812 -0.07379,0.65485 -0.132379,3.21469 -0.130191,5.68854 0.0048,5.3824 0.623091,9.59565 1.704588,11.61494 0.381815,0.7129 0.694209,1.45704 0.694209,1.65365 0,0.1966 0.100798,0.35747 0.223996,0.35747 0.306597,0 2.047076,1.7125 2.233057,2.19716 0.262771,0.68477 2.877053,1.70842 5.612738,2.19774 3.041079,0.54394 3.895794,0.56686 4.718521,0.12655 0.428263,-0.2292 1.239248,-0.25226 2.962662,-0.0842 3.200622,0.31204 8.779843,0.2004 14.543817,-0.29101 2.619375,-0.22332 5.94199,-0.47816 7.383591,-0.5663 1.441601,-0.0881 2.691757,-0.20133 2.778125,-0.25152 0.08637,-0.0502 0.454689,0.0276 0.818491,0.17295 0.847333,0.33844 6.907996,0.48129 8.459965,0.1994 0.651158,-0.11828 2.258502,-0.11128 3.571875,0.0155 1.313373,0.12682 3.399983,0.29493 4.63691,0.37358 1.236927,0.0787 2.600912,0.23957 3.03108,0.35761 0.430167,0.11803 1.305628,0.13515 1.945468,0.0381 1.388237,-0.21068 4.745746,0.0808 5.48437,0.47606 0.288708,0.15451 0.821312,0.22625 1.183563,0.15942 0.881985,-0.16271 11.558635,1.14982 15.475315,1.90245 1.16416,0.22371 2.83104,0.46134 3.70416,0.52806 0.87313,0.0667 2.12328,0.22235 2.77813,0.34584 1.15093,0.21704 10.24817,0.16315 13.75833,-0.0815 z m -87.841662,-4.08337 c 0,-0.12995 0.148828,-0.29101 0.330729,-0.3579 0.465013,-0.17101 1.025152,0.0622 0.845928,0.35219 -0.192603,0.31164 -1.176657,0.31642 -1.176657,0.006 z m 67.289522,-2.32918 c -1.06209,-0.20675 -1.22308,-0.68688 -0.89083,-2.65669 0.16694,-0.98977 0.33266,-3.16833 0.36824,-4.84124 0.0356,-1.67291 0.12594,-3.15888 0.20078,-3.30217 0.0748,-0.14327 0.12307,-0.60763 0.1072,-1.03191 -0.0496,-1.32578 1.4473,-2.45115 2.39984,-1.80422 0.29066,0.19741 0.3354,8.39223 0.0474,8.68024 -0.0772,0.0772 -0.0841,0.97758 -0.0154,2.00089 0.17113,2.54854 -0.007,3.14875 -0.91857,3.10328 -0.39741,-0.0198 -0.98181,-0.0865 -1.29867,-0.14818 z m -58.045862,-0.70035 c -0.828768,-0.41284 -0.948785,-1.29767 -0.848987,-6.25919 0.04244,-2.11006 0.08384,-4.2075 0.092,-4.66098 0.0108,-0.59986 0.195003,-0.92094 0.676095,-1.17841 1.131965,-0.6058 1.524548,-0.0914 1.751539,2.29525 0.285174,2.99835 0.437544,8.98024 0.236596,9.28849 -0.397097,0.60915 -1.253707,0.84038 -1.907241,0.51484 z m 50.175172,-0.20541 c -0.71295,-0.56081 -0.71295,-0.56081 -0.58637,-4.0349 0.14779,-4.05614 0.33861,-5.53256 0.86793,-6.71525 0.75231,-1.68094 1.65559,-0.80092 1.90982,1.86065 0.32068,3.35726 0.16586,8.94219 -0.25528,9.20887 -0.59331,0.3757 -1.1743,0.27986 -1.9361,-0.31937 z m 14.78761,0.30252 c -1.15472,-0.45406 -1.21934,-0.7848 -1.29325,-6.61925 -0.0663,-5.23647 -0.0398,-5.59975 0.42741,-5.84979 1.45627,-0.77937 1.89812,0.3408 2.46333,6.24503 0.2229,2.32833 0.46823,4.60985 0.54519,5.07005 0.077,0.4602 0.0451,0.89022 -0.0707,0.95561 -0.51456,0.29037 -1.57883,0.39226 -2.07194,0.19835 z m 6.14802,0.0333 c -0.83162,-0.32822 -1.15314,-1.35376 -0.92488,-2.95004 0.11444,-0.80036 0.20882,-2.64583 0.20973,-4.10104 0.001,-2.29722 0.13874,-4.60203 0.35466,-5.95314 0.0349,-0.21828 0.1837,-0.60735 0.33069,-0.8646 0.22619,-0.39585 0.39316,-0.42385 1.08641,-0.18218 0.70735,0.24659 0.84714,0.45485 1.02434,1.52607 0.11286,0.68228 0.16703,1.35957 0.12037,1.50509 -0.0466,0.14552 -0.0541,1.09803 -0.0166,2.11667 0.0375,1.01865 0.094,3.10964 0.12547,4.64664 0.0315,1.53701 0.14929,2.94349 0.26179,3.12553 0.11873,0.1921 0.01,0.546 -0.25925,0.84346 -0.46671,0.51572 -1.43089,0.63559 -2.31273,0.28754 z m 6.77881,0.0408 c -1.07554,-0.20937 -1.26231,-0.73452 -0.8552,-2.4047 0.2475,-1.01535 0.35908,-2.95938 0.33963,-5.91738 -0.029,-4.40525 -0.029,-4.40525 0.60995,-4.69636 0.3514,-0.16011 0.75735,-0.29111 0.90211,-0.29111 0.59557,0 1.25334,0.99984 1.39251,2.11667 0.14204,1.13992 0.25499,4.07596 0.17812,4.63021 -0.0202,0.14553 -0.0238,1.59654 -0.008,3.22448 0.0262,2.69841 -0.0176,2.98475 -0.49675,3.24115 -0.5281,0.28263 -0.99597,0.30464 -2.06245,0.097 z m -87.559823,-0.69168 c -0.519232,-0.53826 -0.555842,-0.84188 -0.516501,-4.28349 0.03289,-2.87709 0.136268,-3.85185 0.463002,-4.36562 0.23136,-0.3638 0.500192,-1.11459 0.597403,-1.66841 0.09721,-0.55382 0.40885,-1.23905 0.692534,-1.52274 0.767341,-0.76734 1.571363,-0.19299 1.571363,1.1225 0,0.53849 -0.111903,1.04824 -0.248672,1.13276 -0.145367,0.0899 -0.214288,2.13783 -0.165904,4.92975 0.08277,4.77605 0.08277,4.77605 -0.5623,5.0213 -0.913734,0.3474 -1.197404,0.29069 -1.830925,-0.36605 z m -6.584908,-0.10819 c -1.416801,-0.34516 -1.712788,-1.40276 -2.089319,-7.4654 -0.08527,-1.37298 -0.213413,-2.68268 -0.284758,-2.91043 -0.185211,-0.59124 1.080029,-1.14951 1.76924,-0.78066 0.284827,0.15243 0.45902,0.336 0.387096,0.40792 -0.07192,0.0719 -0.01707,0.50877 0.121909,0.97075 0.138973,0.462 0.481889,2.19293 0.762035,3.84652 0.280146,1.65358 0.617236,3.14186 0.749091,3.30729 0.610986,0.76654 0.61764,1.53789 0.01876,2.17536 -0.330145,0.35142 -0.668806,0.62514 -0.752579,0.60826 -0.08378,-0.0169 -0.390442,-0.0887 -0.681484,-0.15961 z m 24.550977,-0.69792 c -0.429216,-0.54566 -0.497198,-1.19404 -0.543696,-5.1855 -0.05143,-4.41426 0.01217,-4.86905 0.825467,-5.90328 0.398465,-0.50671 1.228709,-0.36952 1.228709,0.20303 0,0.18714 0.154737,0.39964 0.343858,0.47221 0.243732,0.0935 0.356272,0.85292 0.386501,2.60801 0.02344,1.36182 0.118454,3.64048 0.211113,5.06367 0.187833,2.88504 0.01378,3.3655 -1.219247,3.3655 -0.464489,0 -0.925682,-0.23333 -1.232705,-0.62364 z m 17.907074,0.45253 c -0.824902,-0.22378 -1.098925,-1.09838 -0.802309,-2.56072 0.152752,-0.75307 0.330195,-2.97656 0.394319,-4.94109 0.146293,-4.48191 0.173519,-4.6113 0.991055,-4.70974 1.24754,-0.15022 1.516039,0.75601 1.669772,5.63578 0.05043,1.60073 0.1206,3.61254 0.155932,4.47069 0.0519,1.26063 -0.02977,1.62901 -0.425296,1.91823 -0.475446,0.34765 -1.154822,0.41165 -1.983473,0.18685 z m -9.411406,-0.75715 c -0.365022,-0.36502 -0.603808,-0.76055 -0.530638,-0.87894 0.217411,-0.35178 0.224801,-2.11398 0.02156,-5.14477 -0.135591,-2.0221 -0.09366,-3.19918 0.144219,-4.04881 0.313894,-1.12112 0.387919,-1.19276 1.155163,-1.11783 0.766918,0.0749 0.831871,0.16522 1.007279,1.40084 0.103124,0.72644 0.249391,2.27426 0.325038,3.4396 0.07565,1.16533 0.303165,3.04623 0.505598,4.17977 0.357224,2.00029 0.351816,2.07235 -0.183634,2.44739 -0.81543,0.57115 -1.696072,0.47127 -2.444597,-0.27725 z m 25.994494,0.0635 c -0.252425,-0.18458 -0.50419,-0.693 -0.559472,-1.12983 -0.05528,-0.43683 -0.13199,-0.91089 -0.170457,-1.05347 -0.03847,-0.14257 0.03354,-0.79501 0.160022,-1.44985 0.126479,-0.65484 0.249113,-2.20266 0.272524,-3.43958 0.04148,-2.19223 0.464793,-3.96876 0.945675,-3.96876 0.13128,0 0.23869,-0.1786 0.23869,-0.39688 0,-0.54188 0.61865,-0.49973 1.14126,0.0777 0.52204,0.57685 0.5429,0.95408 0.3396,6.13998 -0.1742,4.44368 -0.20225,4.73014 -0.51172,5.22552 -0.26693,0.42728 -1.26872,0.42465 -1.856122,-0.005 z m 44.168152,-0.80294 c -0.778,-1.02001 -0.85282,-1.83059 -0.2927,-3.17115 0.23886,-0.57166 0.41871,-2.02249 0.46302,-3.73519 0.0399,-1.54026 0.17467,-2.80104 0.29959,-2.80176 0.12492,-7.9e-4 0.1417,-0.32871 0.0373,-0.72889 -0.25988,-0.99608 -0.27709,-2.26338 -0.036,-2.6534 0.34397,-0.55656 1.09456,-0.35394 1.55094,0.41866 0.60727,1.02801 0.80266,2.8864 0.85874,8.16773 0.0463,4.36155 0.0262,4.55468 -0.50115,4.81202 -1.34993,0.65873 -1.67436,0.61674 -2.3797,-0.30802 z m -51.379547,0.35044 c -0.32194,-0.1301 -0.624131,-0.55727 -0.714746,-1.01034 -0.249489,-1.24745 0.07487,-7.50728 0.427289,-8.24627 0.408919,-0.85748 1.616424,-1.05773 2.004586,-0.33244 0.254056,0.47471 0.296262,1.0266 0.315995,4.13204 0.0045,0.71254 0.120301,1.88645 0.25727,2.60869 0.198038,1.04425 0.161867,1.49687 -0.176636,2.21021 -0.442232,0.93194 -0.982813,1.09513 -2.113758,0.63811 z m 11.008797,-3.44523 c 0,-0.14552 0.11906,-0.26459 0.26458,-0.26459 0.14553,0 0.26459,0.11907 0.26459,0.26459 0,0.14552 -0.11906,0.26458 -0.26459,0.26458 -0.14552,0 -0.26458,-0.11906 -0.26458,-0.26458 z m -11.782172,-8.47997 c -0.243009,-0.39319 -0.04974,-0.53239 0.374851,-0.26998 0.22747,0.14059 0.254532,0.27694 0.07677,0.3868 -0.151,0.0933 -0.354229,0.0408 -0.451617,-0.11682 z m -14.279287,-3.07042 c -2.328333,-0.20468 -5.270725,-0.41827 -6.53865,-0.47464 -1.267923,-0.0564 -2.399017,-0.15647 -2.513542,-0.22242 -0.489191,-0.28175 -5.296859,-0.31102 -24.073576,-0.14655 -6.897113,0.0604 -10.46312,-5.3e-4 -10.644788,-0.18227 -0.187849,-0.1878 -0.103283,-0.61652 0.270724,-1.37245 0.516438,-1.04382 0.619755,-1.10969 2.045827,-1.3044 2.630451,-0.35914 14.32618,-0.26926 14.561757,0.11191 0.162192,0.26243 0.369887,0.24991 0.990586,-0.0597 0.606587,-0.3026 1.957658,-0.39763 5.935181,-0.41746 5.536935,-0.0276 11.08889,0.11864 14.277939,0.3761 11.157643,0.90078 14.97607,1.01856 17.712531,0.54632 1.290596,-0.22272 2.889007,-0.35833 3.552024,-0.30134 1.354711,0.11642 4.095321,-0.25043 4.523099,-0.60546 0.154271,-0.12803 0.835078,-0.17499 1.512906,-0.10436 0.677828,0.0706 1.688361,0.006 2.245621,-0.14399 1.47416,-0.39634 4.70269,-0.86017 6.83403,-0.98182 1.01864,-0.0581 2.68552,-0.17025 3.70417,-0.24914 5.14082,-0.39814 8.24147,-0.63387 8.59895,-0.65376 0.21829,-0.0121 2.2767,-0.011 4.57425,0.003 2.29755,0.0136 4.2749,-0.0355 4.3941,-0.10921 0.1192,-0.0737 0.62064,-0.01 1.1143,0.1424 0.49366,0.15199 1.61194,0.31849 2.48506,0.37 2.62191,0.15469 5.90873,0.61886 6.45596,0.91173 0.28251,0.15119 2.24768,0.35369 4.36705,0.44999 4.31097,0.19588 4.86292,0.42242 4.53524,1.86143 -0.35462,1.55732 -0.53512,1.62653 -3.58866,1.37606 -1.52556,-0.12513 -3.34069,-0.3602 -4.0336,-0.52237 -0.69291,-0.16217 -1.43973,-0.22583 -1.65958,-0.14147 -0.21985,0.0844 -0.9626,0.0412 -1.65057,-0.0958 -5.70144,-1.13611 -7.19518,-1.34952 -7.6694,-1.09573 -0.35971,0.19251 -0.69908,0.16757 -1.19075,-0.0875 -0.37821,-0.19622 -0.74536,-0.29907 -0.81588,-0.22854 -0.0705,0.0705 -1.74581,0.16281 -3.72287,0.20509 -2.52295,0.054 -3.59586,-0.0116 -3.5987,-0.21976 -0.003,-0.18676 -0.0833,-0.17169 -0.21812,0.0407 -0.13207,0.20809 -1.01744,0.38336 -2.31106,0.4575 -5.8228,0.33373 -10.6846,0.76825 -13.87093,1.23971 -1.09141,0.16148 -2.16297,0.31879 -2.38125,0.34957 -0.21828,0.0308 -0.57547,0.12207 -0.79375,0.20287 -0.21828,0.0808 -1.230317,0.22198 -2.248963,0.31373 -1.87022,0.16846 -2.726727,0.26709 -4.894791,0.56363 -3.852341,0.52691 -11.479625,0.62011 -16.271875,0.19884 z m -31.719457,-8.74791 c -0.07053,-0.0705 -0.820635,-0.23061 -1.666891,-0.35573 -0.84626,-0.12512 -1.918573,-0.30413 -2.382925,-0.39781 -0.960879,-0.19385 -3.256767,-2.17136 -3.256767,-2.80514 0,-0.23096 -0.178594,-0.56814 -0.396875,-0.74929 -0.218281,-0.18116 -0.397608,-0.52316 -0.398505,-0.76 -7.93e-4,-0.23685 -0.163549,-0.74093 -0.36145,-1.1202 -0.585911,-1.12285 -0.604919,-2.54969 -0.190232,-14.28097 0.03672,-1.0388 2.118185,-2.27789 4.420695,-2.63163 3.833804,-0.58899 5.317059,-0.72982 6.980534,-0.66279 0.945885,0.0381 2.017447,-0.0426 2.38125,-0.17928 0.64726,-0.24325 11.608133,-0.31737 14.085371,-0.0952 0.689193,0.0618 1.322497,4e-5 1.407344,-0.13724 0.08484,-0.13729 0.244345,-0.19394 0.354444,-0.12589 0.110098,0.068 1.024607,0.18407 2.032238,0.25784 1.007634,0.0738 1.83206,0.14241 1.83206,0.15255 0,0.0101 2.262187,0.08 5.027083,0.15522 2.764896,0.0752 5.562864,0.19531 6.217708,0.26683 0.654844,0.0715 2.262187,0.16827 3.571875,0.215 1.309687,0.0467 2.738437,0.16165 3.175,0.25536 1.040953,0.22346 18.758459,0.45282 19.744529,0.25561 0.41837,-0.0837 0.76068,-0.30883 0.76068,-0.50033 0,-0.62834 0.6155,-0.75339 3.96636,-0.80589 3.19894,-0.0501 3.36501,-0.0249 4.96333,0.7528 0.9095,0.44256 1.65364,0.88929 1.65364,0.99273 0,0.10344 0.47301,0.40137 1.05113,0.66207 0.57811,0.26069 0.99219,0.56933 0.92017,0.68587 -0.072,0.11653 0.10117,0.42813 0.38488,0.69244 0.2837,0.26431 0.85307,1.19414 1.26527,2.06629 0.68007,1.43894 0.74648,1.83501 0.71734,4.2786 -0.0262,2.19431 -0.13686,2.89386 -0.59795,3.77846 -0.31121,0.59708 -0.56584,1.29241 -0.56584,1.54519 0,0.89158 -3.05111,4.55119 -3.79444,4.55119 -0.13654,0 -0.38045,0.15999 -0.54201,0.35554 -0.16157,0.19554 -1.06766,0.63712 -2.01355,0.98128 -1.45398,0.52903 -2.14248,0.61643 -4.45462,0.56548 -1.92278,-0.0424 -2.98338,-0.18931 -3.57188,-0.49487 -0.72362,-0.37572 -2.02006,-0.4381 -9.568289,-0.46035 -4.802188,-0.0142 -8.865595,0.0672 -9.029795,0.18073 -0.164201,0.11357 -0.589987,0.0957 -0.94619,-0.0398 -0.395923,-0.15053 -1.462495,-0.15284 -2.744161,-0.006 -1.153088,0.13217 -2.989489,0.24562 -4.080896,0.25212 -1.091406,0.007 -3.175,0.11967 -4.630208,0.25149 -1.455208,0.13183 -3.538802,0.31025 -4.630208,0.39649 -1.091406,0.0863 -2.520156,0.21497 -3.175,0.28606 -6.367708,0.69127 -11.681866,1.07559 -17.727082,1.28203 -2.255573,0.077 -4.541565,0.24833 -5.079984,0.38068 -0.538417,0.13235 -1.036651,0.18293 -1.107183,0.11239 z m 0.766614,-2.99853 c 0.249094,-0.51753 0.536617,-0.54842 6.214303,-0.66755 5.936345,-0.12455 8.418044,-0.24682 9.921875,-0.48882 1.277236,-0.20553 3.098383,-0.23524 4.167186,-0.068 0.545703,0.0854 0.992188,0.0672 0.992188,-0.0405 0,-0.10767 0.208359,-0.20558 0.46302,-0.21756 1.266667,-0.0596 3.676947,-0.38107 4.530408,-0.60422 0.895921,-0.23426 8.784047,-0.9275 9.95553,-0.87494 0.291041,0.0131 1.124479,0.0838 1.852083,0.1573 0.834228,0.0842 1.518391,0.009 1.852083,-0.20293 0.666822,-0.42401 23.819576,-0.379 24.629896,0.0479 0.27804,0.14647 1.23479,0.34945 2.12612,0.45107 1.31539,0.14996 1.81368,0.0904 2.64583,-0.31642 2.41843,-1.18223 3.60939,-2.2547 4.07691,-3.67129 0.16316,-0.4944 0.42633,-0.8989 0.58482,-0.8989 0.15849,0 0.20982,-0.0783 0.11407,-0.17409 -0.0957,-0.0958 -0.0263,-0.3523 0.15434,-0.57011 0.45677,-0.55076 0.45476,-5.38736 -0.002,-5.53968 -0.1819,-0.0606 -0.33073,-0.33236 -0.33073,-0.60387 0,-0.27151 -0.44649,-0.82714 -0.99219,-1.23472 -0.5457,-0.40759 -1.11125,-0.87164 -1.25677,-1.03122 -0.49318,-0.54092 -2.17628,-1.42964 -2.70744,-1.42964 -0.29062,0 -0.81235,0.22016 -1.1594,0.48926 -0.78116,0.60569 -1.84833,0.77644 -6.05495,0.96883 -1.81901,0.0832 -3.64216,0.20438 -4.05145,0.26932 -0.40929,0.0649 -1.54038,0.006 -2.51354,-0.1316 -1.01255,-0.14286 -2.19354,-0.15343 -2.760994,-0.0247 -0.545383,0.12373 -1.438352,0.12541 -1.984375,0.004 -0.546021,-0.12168 -2.778704,-0.28851 -4.961517,-0.37072 -7.829703,-0.29489 -10.057124,-0.45772 -10.434772,-0.76285 -0.300657,-0.24291 -0.337714,-0.23466 -0.173305,0.0386 0.162986,0.27091 -0.0011,0.31469 -0.742963,0.19844 -0.523645,-0.0821 -1.384872,-0.21711 -1.913829,-0.30015 -1.830351,-0.28734 -6.64151,-0.46573 -10.812214,-0.40092 -1.600729,0.0249 -3.267603,-0.0506 -3.704165,-0.16773 -0.758249,-0.20343 -14.643537,0.0424 -18.520833,0.32795 -2.963834,0.21824 -3.733036,0.44682 -4.410308,1.31055 -0.70272,0.89619 -0.831432,2.3144 -0.853091,9.39988 -0.01156,3.78607 0.03495,4.19509 0.605743,5.32564 0.50714,1.00447 0.814861,1.28621 1.711922,1.56736 0.60151,0.18852 1.20676,0.44112 1.345005,0.56134 0.138244,0.12022 0.675557,0.21858 1.19403,0.21858 0.689192,0 1.012907,-0.14592 1.203854,-0.54264 z m 15.31738,-3.37072 c -0.880883,-0.7712 -1.436034,-2.40199 -1.178214,-3.46105 0.08402,-0.34514 0.109686,-1.07927 0.05703,-1.6314 -0.122266,-1.28209 -0.433517,-1.36426 -4.474358,-1.18119 -4.449924,0.2016 -10.571424,1.20339 -10.952758,1.79243 -0.194984,0.30119 -1.529347,-0.57678 -1.542298,-1.01478 -0.01206,-0.40764 1.406969,-1.70315 1.865521,-1.70315 0.214321,0 0.647759,-0.18077 0.963197,-0.40171 0.315439,-0.22094 0.669354,-0.3795 0.786477,-0.35234 0.412771,0.0957 2.33608,-0.38821 2.858783,-0.71928 0.52746,-0.33408 2.007735,-0.49678 7.276042,-0.79972 1.527968,-0.0879 2.831205,-0.21116 2.896084,-0.27398 0.06488,-0.0628 0.140623,-0.91443 0.168323,-1.89246 0.06539,-2.30891 0.01532,-2.14303 0.747471,-2.47662 1.004639,-0.45774 2.87314,0.3645 3.416205,1.50332 0.379621,0.79607 0.382884,0.93902 0.02951,1.2924 -0.353378,0.35338 -0.33482,0.45983 0.167775,0.96242 0.517873,0.51788 0.745306,0.55056 2.721429,0.39109 4.717568,-0.38072 6.926159,-0.3848 8.374036,-0.0155 0.81053,0.20675 2.685954,0.36725 4.233333,0.3623 1.527969,-0.005 3.730625,0.0795 4.894792,0.18757 1.85089,0.17179 3.773159,0.22695 5.556249,0.15944 0.291042,-0.011 1.918894,0.0378 3.61745,0.10848 1.698556,0.0707 3.151359,0.0265 3.228451,-0.0983 0.07709,-0.12474 0.770959,-0.14332 1.541925,-0.0413 0.770967,0.10203 1.600247,0.0825 1.842847,-0.0434 0.24261,-0.12588 1.13558,-0.14961 1.98438,-0.0527 0.8488,0.0969 1.96,0.15489 2.46932,0.1289 2.66872,-0.1362 8.1121,0.0423 8.39716,0.27538 0.18004,0.14721 0.49858,0.20195 0.70786,0.12164 0.68204,-0.26172 2.16997,0.32771 2.53122,1.00271 0.31301,0.58486 0.27545,0.74682 -0.36907,1.59183 -0.71752,0.94072 -0.71752,0.94072 -2.48662,0.78928 -3.29402,-0.282 -7.04396,-0.39056 -11.55867,-0.33462 -7.113746,0.0881 -12.001672,0.0409 -18.123961,-0.17509 -7.519977,-0.26532 -8.295978,-0.30001 -12.170833,-0.54399 -1.81901,-0.11453 -3.664479,-0.19721 -4.101041,-0.18374 -3.238396,0.1 -2.95388,-0.023 -3.003868,1.29852 -0.02479,0.65578 0.08456,1.67383 0.243023,2.26233 0.211777,0.78649 0.208907,1.11896 -0.01085,1.25477 -0.164428,0.10162 -0.269084,0.29292 -0.232572,0.42511 0.157472,0.57008 -0.39209,1.43662 -1.151312,1.81538 -1.082768,0.54015 -1.256027,0.51446 -2.219481,-0.32903 z m 19.664848,-16.61941 c -0.08792,-0.0879 -0.316125,-0.0973 -0.507119,-0.0209 -0.211066,0.0845 -0.148373,0.14716 0.159853,0.15985 0.278913,0.0115 0.435184,-0.051 0.347266,-0.13896 z m 61.873914,16.63017 c -0.10914,-0.10915 -0.51594,-0.21792 -0.90399,-0.24174 -1.90545,-0.11692 -3.9607,-0.56171 -4.67431,-1.01161 -1.65159,-1.04125 -3.04115,-2.30531 -3.86334,-3.51442 -0.86317,-1.26939 -1.00635,-1.79283 -1.13842,-4.16192 -0.0406,-0.72761 -0.15215,-1.53128 -0.24798,-1.78594 -0.0958,-0.25466 -0.23363,-0.65103 -0.30624,-0.88082 -0.21504,-0.68055 2.01564,-5.02254 2.83437,-5.51707 0.39489,-0.23852 0.87114,-0.57833 1.05834,-0.75513 1.0031,-0.9474 3.45916,-1.50794 6.01797,-1.37346 1.01818,0.0535 1.97157,0.33644 3.12039,0.926 2.42047,1.24215 3.58213,2.44893 4.45104,4.62392 0.40695,1.01864 0.84649,1.99497 0.97676,2.1696 0.13027,0.17464 0.27277,0.84801 0.31667,1.49639 0.0439,0.64837 0.14955,1.29171 0.2348,1.42964 0.16008,0.25903 -0.0373,0.97803 -0.97252,3.54246 -0.36914,1.01219 -0.78255,1.63468 -1.28133,1.92931 -0.405,0.23924 -0.79668,0.43517 -0.87041,0.43539 -0.60703,0.002 -2.30779,1.01859 -3.1096,1.859 -0.9942,1.04204 -1.28401,1.18859 -1.6422,0.8304 z m 0.63941,-3.26942 c 1.11757,-0.44484 1.35035,-0.61261 2.64328,-1.90505 1.07307,-1.07266 1.4463,-2.19207 1.34028,-4.01981 -0.0689,-1.18825 -1.11288,-4.38123 -1.64895,-5.04338 -0.93457,-1.1544 -1.98238,-1.96807 -2.53437,-1.96807 -0.33604,0 -1.01408,-0.16843 -1.50674,-0.37428 -1.27337,-0.53204 -2.86242,-0.0751 -4.45344,1.28061 -1.0602,0.90341 -1.35314,1.36556 -1.80836,2.85296 -0.29877,0.97621 -0.46334,1.90416 -0.36572,2.06211 0.0976,0.15796 0.0424,0.44997 -0.12272,0.64892 -0.20637,0.24867 -0.21349,0.41533 -0.0228,0.53319 0.15259,0.0943 0.27743,0.35447 0.27743,0.57815 0,0.22368 0.19243,1.06859 0.42761,1.87758 0.45139,1.55274 1.25233,2.50273 2.60068,3.08463 0.44449,0.19183 1.10583,0.48117 1.46963,0.64299 0.80564,0.35833 2.45474,0.24679 3.70417,-0.25055 z m -0.92604,-7.11548 c -0.0899,-0.14552 -0.3764,-0.26458 -0.63659,-0.26458 -0.73674,0 -1.61237,-0.9149 -1.61237,-1.68469 0,-0.38311 0.12388,-0.69656 0.2753,-0.69656 0.15141,0 0.60139,-0.24109 0.99994,-0.53576 0.62078,-0.45896 0.8468,-0.49318 1.57679,-0.2387 0.46868,0.16338 0.85214,0.44942 0.85214,0.63565 0,0.18623 0.16228,0.47328 0.36063,0.6379 0.44732,0.37124 0.41122,1.03688 -0.0985,1.81601 -0.39823,0.60874 -1.42351,0.80619 -1.71736,0.33073 z m 8.82242,8.02452 c -0.50687,-0.13445 -0.84738,-1.22375 -0.6132,-1.9616 0.24738,-0.77941 2.24952,-0.70225 3.20974,0.1237 0.6587,0.56659 0.70092,0.70044 0.4173,1.32292 -0.27268,0.59848 -0.46905,0.68837 -1.44569,0.66185 -0.62159,-0.0169 -1.32725,-0.083 -1.56815,-0.14687 z m -22.75021,-4.48739 c -1.47433,-0.45212 -1.87966,-1.27695 -0.99057,-2.01578 0.74602,-0.61993 1.34002,-0.58323 2.14102,0.1323 0.80507,0.71916 1.04705,1.55369 0.57765,1.99218 -0.19013,0.17761 -0.38048,0.31052 -0.423,0.29537 -0.0425,-0.0152 -0.62982,-0.19698 -1.3051,-0.40407 z m 24.908,-0.0559 c 0,-0.12261 -0.41127,-0.4444 -0.91392,-0.7151 -0.69844,-0.37613 -0.84676,-0.57311 -0.62907,-0.83541 0.15668,-0.18878 0.1923,-0.34324 0.0792,-0.34324 -0.11313,0 -0.008,-0.21802 0.23276,-0.48449 0.24116,-0.26647 0.37699,-0.54596 0.30187,-0.62109 -0.0751,-0.0751 0.25203,-0.14848 0.72702,-0.16301 1.27788,-0.0391 2.57987,0.93507 2.57954,1.93005 -1.9e-4,0.60329 -0.17113,0.8731 -0.7124,1.12448 -0.81751,0.37966 -1.66497,0.43454 -1.66497,0.10781 z m -24.50992,-6.16991 c -0.57472,-0.28036 -1.15467,-1.26001 -1.15467,-1.95045 0,-0.20948 0.43469,-0.5625 0.96597,-0.78448 0.96597,-0.40361 0.96597,-0.40361 1.83558,0.57386 0.69004,0.77563 0.81586,1.07789 0.60929,1.46385 -0.14317,0.26752 -0.20296,0.57918 -0.13288,0.69259 0.19408,0.31402 -1.48156,0.31768 -2.12329,0.005 z m 22.73638,-0.55133 c -1.5723,-0.92466 -1.39841,-2.10903 0.35804,-2.43855 0.76825,-0.14412 1.06598,-0.0658 1.57807,0.41532 0.35814,0.33645 0.63118,0.89717 0.63118,1.2962 0,0.56345 -0.17093,0.75514 -0.8599,0.96434 -0.69264,0.21031 -1.02474,0.16416 -1.70739,-0.23731 z m -2.92652,-6.45817 c -0.91331,-0.45019 -1.39265,-1.51288 -0.90319,-2.00234 0.15657,-0.15657 0.73721,-0.36242 1.29031,-0.45744 0.84188,-0.14464 1.10259,-0.0714 1.60096,0.44997 0.80645,0.8436 0.77308,1.75245 -0.0786,2.1405 -0.84542,0.3852 -0.86572,0.38381 -1.90948,-0.13069 z m -16.8902,-1.56975 c -0.46643,-1.11632 -0.22589,-1.57009 0.9717,-1.83313 0.54947,-0.12068 1.0336,-0.0113 1.6577,0.37437 1.57741,0.97489 0.77466,2.39449 -1.35942,2.40402 -0.75362,0.003 -0.92778,-0.12626 -1.26998,-0.94526 z m 8.00912,0.62494 c -0.54758,-0.40843 -0.7622,-2.17421 -0.26539,-2.18353 0.16977,-0.003 0.39798,-0.0951 0.50712,-0.20423 0.35574,-0.35574 1.11362,-0.21009 2.06507,0.39688 1.50922,0.96277 1.18172,1.88533 -0.77733,2.1897 -0.69512,0.10799 -1.20741,0.0414 -1.52947,-0.19882 z m -51.638656,-6.81953 c 0.08994,-0.14552 -0.02913,-0.26458 -0.264583,-0.26458 -0.235458,0 -0.354521,0.11906 -0.264584,0.26458 0.08994,0.14552 0.209,0.26458 0.264584,0.26458 0.05558,0 0.174646,-0.11906 0.264583,-0.26458 z m 68.520656,-0.7276 c -0.10744,-0.25467 -0.2139,-0.76068 -0.23659,-1.12448 -0.0227,-0.36381 -0.29391,-1.19724 -0.60273,-1.85209 -0.30881,-0.65484 -0.64726,-1.64886 -0.75211,-2.20894 -0.14666,-0.78343 -0.63649,-1.47 -2.12362,-2.97656 -1.77317,-1.79634 -2.0219,-1.95825 -3.00836,-1.95825 -0.79458,0 -1.07537,-0.107 -1.07537,-0.409807 0,-0.35694 -0.47583,-0.39224 -3.68808,-0.27366 -4.20216,0.15513 -4.68014,0.23688 -6.48418,1.109077 -0.7198,0.348 -1.43417,0.6333 -1.5875,0.63399 -0.46314,0.002 -2.30589,1.8322 -2.13054,2.11592 0.0898,0.14524 -0.008,0.26407 -0.21789,0.26407 -0.43809,0 -1.76681,1.63824 -1.76681,2.17838 0,0.19889 -0.10568,0.47473 -0.23485,0.61297 -0.12916,0.13825 -0.30631,0.48948 -0.39367,0.78052 -0.15587,0.51931 -0.0319,0.52945 6.65099,0.54427 4.23504,0.009 7.33658,0.13372 8.20301,0.32882 0.76625,0.17254 2.195,0.38677 3.175,0.47605 0.98,0.0893 2.07947,0.35783 2.44327,0.59676 0.86809,0.57013 3.20973,1.60184 3.66633,1.61535 0.24104,0.007 0.29484,-0.14154 0.1637,-0.45239 z M 54.638677,65.354352 c 0,-0.06417 -0.119062,-0.190262 -0.264583,-0.280199 -0.145521,-0.08994 -0.264583,-0.03743 -0.264583,0.116676 0,0.154109 0.119062,0.280199 0.264583,0.280199 0.145521,0 0.264583,-0.0525 0.264583,-0.116676 z"
         style="fill:#31344b;fill-opacity:1;stroke-width:0.264583"
         id="path305"
         sodipodi:nodetypes="csscsssssssscsscsssssssssssssssscsssssscssscsscsssscsssssssssssssssssssssssssssssssssssssssssssssssssssssssssssssssssssssssssssssssssssssssssssssssscsssssssssssssscsssssssssscsssssscccscsssssscsscssscssssscsccsssssscsscsssscscsssscssscsssssscscscsccscsssssccssssssssssssssssssssssssssssssssssscsssscsssscssscscssssssssccsssssscssssssssssssssssssssssssssssssssssssssssssscsssssssssccssccscssssssssssssssssssssssscscscssssssssssccsccscssssssscsssccssssssscccsssscsssscssccssscsssssssssssssssssscccccscssscccsssssscccsscsscscsscsssccscssscssscsssssscccssssssssscsssssssscssssssssssssscsscsssssccscsssscsscsssssssssssscsssssssssssssssssssssssssssssscsssscsssscssssscsssssscsssssccssssssssscssssccsscsssssssssssssssssscssssscssscssssss" /></g></g></svg>
